<svg width="21" height="20" viewBox="0 0 21 20" fill="none" xmlns="http://www.w3.org/2000/svg">
<path d="M13.6728 18.238L12.7501 12.2441C12.7501 12.0106 12.9179 11.7771 13.1695 11.6993L19.6284 10.843C19.88 10.843 20.0478 10.6095 20.0478 10.2981L19.5445 6.95093C19.5445 6.7174 19.2929 6.56172 18.9573 6.56172L12.4984 7.41797C12.2468 7.41797 11.9951 7.26229 11.9113 7.02876L10.9885 1.03496C10.9885 0.801435 10.7369 0.645752 10.4013 0.645752L6.79443 1.11281C6.54278 1.11281 6.37502 1.34633 6.37502 1.6577L7.29775 7.6515C7.29775 7.88502 7.12999 8.11854 6.87834 8.19639L0.41941 9.05265C0.167764 9.05265 0 9.28617 0 9.59754L0.503272 12.9447C0.503272 13.1783 0.754929 13.3339 1.09046 13.3339L7.54939 12.4777C7.80103 12.4777 8.05269 12.6334 8.13657 12.8669L9.05926 18.8607C9.05926 19.0942 9.31091 19.2499 9.64644 19.2499L13.2534 18.7829C13.505 18.705 13.6728 18.4715 13.6728 18.238Z" fill="#FDD08D"/>
</svg>
