<svg width="32" height="30" viewBox="0 0 32 30" fill="none" xmlns="http://www.w3.org/2000/svg">
<path d="M19.6556 28.8973L19.6601 19.3182C19.7166 18.9526 20.0358 18.622 20.4487 18.5527L30.77 18.5634C31.164 18.616 31.4832 18.2854 31.5585 17.7979L31.5799 12.451C31.6363 12.0853 31.2799 11.7889 30.7545 11.7187L20.4331 11.708C20.039 11.6554 19.6827 11.3589 19.6078 10.9757L19.6123 1.39659C19.6688 1.0309 19.3123 0.734454 18.7869 0.664245L13.0258 0.640892C12.6317 0.588236 12.3125 0.918817 12.2372 1.4064L12.2327 10.9855C12.1762 11.3512 11.8571 11.6818 11.4442 11.751L1.12281 11.7403C0.728748 11.6877 0.409568 12.0183 0.334272 12.5059L0.312937 17.8527C0.256465 18.2184 0.612896 18.5148 1.13831 18.5851L11.4597 18.5957C11.8537 18.6484 12.2102 18.9448 12.2851 19.328L12.2805 28.9071C12.224 29.2728 12.5804 29.5693 13.1059 29.6395L18.867 29.6628C19.2799 29.5936 19.5991 29.263 19.6556 28.8973Z" fill="#FDD08D"/>
</svg>
